<mxfile host="app.diagrams.net" agent="Mozilla/5.0 (Windows NT 10.0; Win64; x64) AppleWebKit/537.36 (KHTML, like Gecko) Chrome/131.0.0.0 Safari/537.36 Edg/131.0.0.0" version="24.8.6">
  <diagram id="prtHgNgQTEPvFCAcTncT" name="Page-1">
    <mxGraphModel dx="922" dy="697" grid="1" gridSize="10" guides="1" tooltips="1" connect="1" arrows="1" fold="1" page="1" pageScale="1" pageWidth="827" pageHeight="1169" math="0" shadow="0">
      <root>
        <mxCell id="0" />
        <mxCell id="1" parent="0" />
        <mxCell id="dNxyNK7c78bLwvsdeMH5-11" value="用户界面层" style="swimlane;html=1;startSize=20;horizontal=1;containerType=tree;glass=0;fillColor=#fff2cc;strokeColor=#d6b656;" parent="1" vertex="1">
          <mxGeometry x="20" y="100" width="347.5" height="130" as="geometry" />
        </mxCell>
        <mxCell id="XJMQIK7YwNs6-fbvPwkj-11" value="前端界面" style="rounded=0;whiteSpace=wrap;html=1;" parent="dNxyNK7c78bLwvsdeMH5-11" vertex="1">
          <mxGeometry x="57.5" y="45" width="125" height="60" as="geometry" />
        </mxCell>
        <mxCell id="XJMQIK7YwNs6-fbvPwkj-80" style="edgeStyle=orthogonalEdgeStyle;rounded=0;orthogonalLoop=1;jettySize=auto;html=1;exitX=1;exitY=0.5;exitDx=0;exitDy=0;entryX=0;entryY=0.5;entryDx=0;entryDy=0;curved=1;" parent="dNxyNK7c78bLwvsdeMH5-11" source="XJMQIK7YwNs6-fbvPwkj-11" target="XJMQIK7YwNs6-fbvPwkj-81" edge="1">
          <mxGeometry relative="1" as="geometry">
            <mxPoint x="180" y="145" as="sourcePoint" />
          </mxGeometry>
        </mxCell>
        <mxCell id="XJMQIK7YwNs6-fbvPwkj-81" value="用户输入&lt;div&gt;&lt;font style=&quot;font-size: 6px;&quot;&gt;图片、文本&lt;/font&gt;&lt;/div&gt;" style="rounded=0;whiteSpace=wrap;html=1;" parent="dNxyNK7c78bLwvsdeMH5-11" vertex="1">
          <mxGeometry x="230" y="25" width="90" height="45" as="geometry" />
        </mxCell>
        <mxCell id="XJMQIK7YwNs6-fbvPwkj-82" style="edgeStyle=orthogonalEdgeStyle;rounded=0;orthogonalLoop=1;jettySize=auto;html=1;exitX=1;exitY=0.5;exitDx=0;exitDy=0;entryX=0;entryY=0.5;entryDx=0;entryDy=0;curved=1;" parent="dNxyNK7c78bLwvsdeMH5-11" source="XJMQIK7YwNs6-fbvPwkj-11" target="XJMQIK7YwNs6-fbvPwkj-83" edge="1">
          <mxGeometry relative="1" as="geometry">
            <mxPoint x="180" y="145" as="sourcePoint" />
          </mxGeometry>
        </mxCell>
        <mxCell id="XJMQIK7YwNs6-fbvPwkj-83" value="结果展示" style="rounded=0;whiteSpace=wrap;html=1;" parent="dNxyNK7c78bLwvsdeMH5-11" vertex="1">
          <mxGeometry x="230" y="80" width="90" height="40" as="geometry" />
        </mxCell>
        <mxCell id="XJMQIK7YwNs6-fbvPwkj-16" value="边缘设备层" style="swimlane;startSize=20;horizontal=1;childLayout=treeLayout;horizontalTree=0;sortEdges=1;resizable=0;containerType=tree;fontSize=12;fillColor=#dae8fc;strokeColor=#6c8ebf;" parent="1" vertex="1">
          <mxGeometry x="170" y="320" width="140" height="190" as="geometry" />
        </mxCell>
        <mxCell id="XJMQIK7YwNs6-fbvPwkj-93" value="视频流上传" style="whiteSpace=wrap;html=1;" parent="XJMQIK7YwNs6-fbvPwkj-16" vertex="1">
          <mxGeometry x="20" y="40" width="100" height="40" as="geometry" />
        </mxCell>
        <mxCell id="XJMQIK7YwNs6-fbvPwkj-94" value="目标识别" style="whiteSpace=wrap;html=1;" parent="XJMQIK7YwNs6-fbvPwkj-16" vertex="1">
          <mxGeometry x="20" y="90" width="100" height="40" as="geometry" />
        </mxCell>
        <mxCell id="XJMQIK7YwNs6-fbvPwkj-95" value="特征提取" style="whiteSpace=wrap;html=1;" parent="XJMQIK7YwNs6-fbvPwkj-16" vertex="1">
          <mxGeometry x="20" y="140" width="100" height="40" as="geometry" />
        </mxCell>
        <mxCell id="XJMQIK7YwNs6-fbvPwkj-23" value="云平台" style="swimlane;startSize=20;horizontal=1;childLayout=treeLayout;horizontalTree=0;sortEdges=1;resizable=0;containerType=tree;fontSize=12;fillColor=#e1d5e7;strokeColor=#9673a6;" parent="1" vertex="1">
          <mxGeometry x="490" y="40" width="400" height="500" as="geometry" />
        </mxCell>
        <mxCell id="jY799RlN4JHG7ZUcP95K-8" value="数据库" style="swimlane;whiteSpace=wrap;html=1;" vertex="1" parent="XJMQIK7YwNs6-fbvPwkj-23">
          <mxGeometry x="127.5" y="40" width="145" height="120" as="geometry" />
        </mxCell>
        <mxCell id="jY799RlN4JHG7ZUcP95K-9" value="行人特征向量" style="whiteSpace=wrap;html=1;" vertex="1" parent="jY799RlN4JHG7ZUcP95K-8">
          <mxGeometry x="12.5" y="40" width="120" height="60" as="geometry" />
        </mxCell>
        <mxCell id="jY799RlN4JHG7ZUcP95K-11" value="" style="edgeStyle=orthogonalEdgeStyle;rounded=0;orthogonalLoop=1;jettySize=auto;html=1;" edge="1" source="jY799RlN4JHG7ZUcP95K-8" target="jY799RlN4JHG7ZUcP95K-12" parent="XJMQIK7YwNs6-fbvPwkj-23">
          <mxGeometry relative="1" as="geometry" />
        </mxCell>
        <mxCell id="jY799RlN4JHG7ZUcP95K-12" value="LGUR" style="swimlane;whiteSpace=wrap;html=1;" vertex="1" parent="XJMQIK7YwNs6-fbvPwkj-23">
          <mxGeometry x="20" y="210" width="360" height="270" as="geometry" />
        </mxCell>
        <mxCell id="jY799RlN4JHG7ZUcP95K-16" value="" style="edgeStyle=orthogonalEdgeStyle;rounded=0;orthogonalLoop=1;jettySize=auto;html=1;" edge="1" parent="jY799RlN4JHG7ZUcP95K-12" source="jY799RlN4JHG7ZUcP95K-13" target="jY799RlN4JHG7ZUcP95K-15">
          <mxGeometry relative="1" as="geometry" />
        </mxCell>
        <mxCell id="jY799RlN4JHG7ZUcP95K-13" value="&lt;span style=&quot;line-height: 125%;&quot;&gt;&lt;font style=&quot;font-size: 12px;&quot;&gt;特征提取&lt;/font&gt;&lt;/span&gt;" style="whiteSpace=wrap;html=1;" vertex="1" parent="jY799RlN4JHG7ZUcP95K-12">
          <mxGeometry x="20" y="43" width="70" height="40" as="geometry" />
        </mxCell>
        <mxCell id="jY799RlN4JHG7ZUcP95K-15" value="&lt;span style=&quot;line-height: 125%;&quot;&gt;&lt;font style=&quot;font-size: 12px;&quot;&gt;基于词典的粒度对齐模块&lt;/font&gt;&lt;/span&gt;" style="whiteSpace=wrap;html=1;" vertex="1" parent="jY799RlN4JHG7ZUcP95K-12">
          <mxGeometry x="130" y="43" width="90" height="40" as="geometry" />
        </mxCell>
        <mxCell id="jY799RlN4JHG7ZUcP95K-54" style="edgeStyle=orthogonalEdgeStyle;rounded=0;orthogonalLoop=1;jettySize=auto;html=1;exitX=0.5;exitY=1;exitDx=0;exitDy=0;entryX=0.5;entryY=0;entryDx=0;entryDy=0;" edge="1" parent="jY799RlN4JHG7ZUcP95K-12" source="jY799RlN4JHG7ZUcP95K-17" target="jY799RlN4JHG7ZUcP95K-52">
          <mxGeometry relative="1" as="geometry" />
        </mxCell>
        <mxCell id="jY799RlN4JHG7ZUcP95K-17" value="&lt;span style=&quot;line-height: 125%;&quot;&gt;&lt;font style=&quot;font-size: 12px;&quot;&gt;基于原型的粒度统一模块&lt;/font&gt;&lt;/span&gt;" style="whiteSpace=wrap;html=1;" vertex="1" parent="jY799RlN4JHG7ZUcP95K-12">
          <mxGeometry x="260" y="43" width="80" height="40" as="geometry" />
        </mxCell>
        <mxCell id="jY799RlN4JHG7ZUcP95K-18" value="" style="edgeStyle=orthogonalEdgeStyle;rounded=0;orthogonalLoop=1;jettySize=auto;html=1;" edge="1" parent="jY799RlN4JHG7ZUcP95K-12" source="jY799RlN4JHG7ZUcP95K-15" target="jY799RlN4JHG7ZUcP95K-17">
          <mxGeometry relative="1" as="geometry" />
        </mxCell>
        <mxCell id="jY799RlN4JHG7ZUcP95K-57" value="" style="edgeStyle=orthogonalEdgeStyle;rounded=0;orthogonalLoop=1;jettySize=auto;html=1;" edge="1" parent="jY799RlN4JHG7ZUcP95K-12" source="jY799RlN4JHG7ZUcP95K-52" target="jY799RlN4JHG7ZUcP95K-56">
          <mxGeometry relative="1" as="geometry" />
        </mxCell>
        <mxCell id="jY799RlN4JHG7ZUcP95K-52" value="余弦相似度计算" style="rounded=0;whiteSpace=wrap;html=1;" vertex="1" parent="jY799RlN4JHG7ZUcP95K-12">
          <mxGeometry x="122.5" y="140" width="105" height="37" as="geometry" />
        </mxCell>
        <mxCell id="jY799RlN4JHG7ZUcP95K-56" value="对比得出结果" style="whiteSpace=wrap;html=1;rounded=0;" vertex="1" parent="jY799RlN4JHG7ZUcP95K-12">
          <mxGeometry x="127.5" y="210" width="95" height="50" as="geometry" />
        </mxCell>
        <mxCell id="jY799RlN4JHG7ZUcP95K-7" value="" style="shape=flexArrow;endArrow=classic;startArrow=classic;html=1;rounded=0;exitX=1;exitY=0.5;exitDx=0;exitDy=0;entryX=0;entryY=0.75;entryDx=0;entryDy=0;" edge="1" parent="1" source="XJMQIK7YwNs6-fbvPwkj-16" target="XJMQIK7YwNs6-fbvPwkj-23">
          <mxGeometry width="100" height="100" relative="1" as="geometry">
            <mxPoint x="420" y="330" as="sourcePoint" />
            <mxPoint x="520" y="230" as="targetPoint" />
          </mxGeometry>
        </mxCell>
        <mxCell id="jY799RlN4JHG7ZUcP95K-58" value="" style="shape=flexArrow;endArrow=classic;startArrow=classic;html=1;rounded=0;exitX=1;exitY=0.5;exitDx=0;exitDy=0;entryX=0;entryY=0.25;entryDx=0;entryDy=0;" edge="1" parent="1" source="dNxyNK7c78bLwvsdeMH5-11" target="XJMQIK7YwNs6-fbvPwkj-23">
          <mxGeometry width="100" height="100" relative="1" as="geometry">
            <mxPoint x="560" y="340" as="sourcePoint" />
            <mxPoint x="660" y="240" as="targetPoint" />
          </mxGeometry>
        </mxCell>
      </root>
    </mxGraphModel>
  </diagram>
</mxfile>
